<?xml version="1.0" encoding="UTF-8" standalone="no"?>
<svg width="183px" height="75px" viewBox="0 0 183 75" version="1.1" xmlns="http://www.w3.org/2000/svg" xmlns:xlink="http://www.w3.org/1999/xlink">
    <!-- Generator: Sketch 40.3 (33839) - http://www.bohemiancoding.com/sketch -->
    <title>Artboard</title>
    <desc>Created with Sketch.</desc>
    <defs></defs>
    <g id="Symbols" stroke="none" stroke-width="1" fill="none" fill-rule="evenodd">
        <g id="Artboard">
            <g id="Page-1" transform="translate(7.000000, 13.000000)">
                <path d="M66.0411354,17.4826674 L62.9253316,25.3216022 L69.1580089,25.3216022 L66.0411354,17.4826674 Z M73.0278949,35.0236022 L70.4704329,28.6205804 L61.6129076,28.6205804 L59.0565152,35.0236022 L55.3160532,35.0236022 L64.4014076,12.2226239 L67.6819329,12.2226239 L76.7672873,35.0236022 L73.0278949,35.0236022 Z" id="Fill-1" fill="#FEFEFE"></path>
                <g id="Group-20">
                    <path d="M87.9493114,23.5907304 C87.4904443,22.7747739 86.5395519,22.2517522 85.2271278,22.2517522 C83.9157734,22.2187304 82.9638114,22.7747739 82.5049443,23.5907304 C82.2749759,23.9827304 82.1444823,24.4727304 82.0781658,25.0607304 L82.0781658,29.2417087 C82.1444823,29.8297087 82.2749759,30.3197087 82.5049443,30.7117087 C82.9638114,31.5276652 83.9157734,32.0837087 85.2271278,32.0837087 C86.5395519,32.0837087 87.4904443,31.5276652 87.9493114,30.7117087 C88.5076532,29.796687 88.6060582,28.5557087 88.6060582,27.150687 C88.6060582,25.8447304 88.5076532,24.5377087 87.9493114,23.5907304 M90.8683051,32.344687 C89.7537608,34.304687 87.6540962,35.382687 85.2271278,35.382687 C84.1125835,35.382687 83.0290582,35.1536652 82.0781658,34.6647304 L82.0781658,42.2096652 L78.7334633,42.2096652 L78.7334633,19.1477087 L82.0781658,19.1477087 L82.0781658,19.6377087 C83.0290582,19.1477087 84.1125835,18.9197522 85.2271278,18.9197522 C87.6540962,18.9197522 89.7537608,19.9977522 90.8683051,21.9577522 C91.8855139,23.6887304 91.983919,25.6817522 91.9518304,27.1837087 C91.9518304,28.7517087 91.8523557,30.678687 90.8683051,32.344687" id="Fill-2" fill="#FEFEFE"></path>
                    <path d="M103.624917,23.5907304 C103.16605,22.7747739 102.215158,22.2517522 100.902734,22.2517522 C99.5903095,22.2187304 98.6394171,22.7747739 98.18055,23.5907304 C97.9505816,23.9827304 97.8179487,24.4727304 97.7537715,25.0607304 L97.7537715,29.2417087 C97.8179487,29.8297087 97.9505816,30.3197087 98.18055,30.7117087 C98.6394171,31.5276652 99.5903095,32.0837087 100.902734,32.0837087 C102.215158,32.0837087 103.16605,31.5276652 103.624917,30.7117087 C104.183259,29.796687 104.280594,28.5557087 104.280594,27.150687 C104.280594,25.8447304 104.183259,24.5377087 103.624917,23.5907304 M106.543911,32.344687 C105.427227,34.304687 103.329702,35.382687 100.902734,35.382687 C99.78605,35.382687 98.7046639,35.1536652 97.7537715,34.6647304 L97.7537715,42.2096652 L94.4079994,42.2096652 L94.4079994,19.1477087 L97.7537715,19.1477087 L97.7537715,19.6377087 C98.7046639,19.1477087 99.78605,18.9197522 100.902734,18.9197522 C103.329702,18.9197522 105.427227,19.9977522 106.543911,21.9577522 C107.56112,23.6887304 107.658455,25.6817522 107.627436,27.1837087 C107.627436,28.7517087 107.527961,30.678687 106.543911,32.344687" id="Fill-4" fill="#FEFEFE"></path>
                    <polygon id="Fill-6" fill="#2CD5C4" points="124.439941 35.0234957 124.439941 24.8645174 114.205815 24.8645174 114.205815 35.0234957 110.728479 35.0234957 110.728479 12.2225174 114.205815 12.2225174 114.205815 21.5974957 124.439941 21.5974957 124.439941 12.2225174 127.917277 12.2225174 127.917277 35.0234957"></polygon>
                    <path d="M140.624793,23.5258587 C139.968046,22.5778152 139.148717,22.1538587 137.935768,22.1538587 C135.768717,22.1538587 134.720489,23.2648804 134.358958,25.0938587 L141.017344,25.0938587 C140.951027,24.4067935 140.788445,23.786837 140.624793,23.5258587 L140.624793,23.5258587 Z M134.260553,28.3267935 C134.325799,29.2087935 134.522609,30.0577717 134.917299,30.646837 C135.475641,31.4627935 136.655432,32.116837 138.228844,32.116837 C139.541268,32.116837 140.591635,31.724837 141.642002,30.5807935 L144.331027,32.5738152 C142.526578,34.566837 140.49216,35.3178152 138.262002,35.3178152 C135.639293,35.3497717 133.341749,34.2717717 132.095641,32.4097717 C130.947939,30.7118152 130.849534,28.5227935 130.849534,27.0858152 C130.849534,25.5178152 130.981097,23.4267935 132.095641,21.7618587 C133.374907,19.866837 135.442483,18.9198587 137.966787,18.9198587 C140.263261,18.9198587 142.198204,19.8998587 143.444312,21.7948804 C144.625173,23.5578152 144.461521,26.2687935 144.428363,28.3267935 L134.260553,28.3267935 Z" id="Fill-8" fill="#2CD5C4"></path>
                    <path d="M148.405532,33.3580283 C147.913506,32.4760283 147.882487,31.4630065 147.882487,30.74505 L147.882487,12.22305 L150.965133,12.22305 L150.965133,30.74505 C150.965133,31.62705 150.997222,31.7239848 152.178082,31.7239848 L152.178082,35.0240283 C150.243139,35.0240283 149.03019,34.5010065 148.405532,33.3580283" id="Fill-10" fill="#2CD5C4"></path>
                    <path d="M164.508985,23.5907304 C164.050118,22.7747739 163.099226,22.2517522 161.786802,22.2517522 C160.475447,22.2187304 159.523485,22.7747739 159.064618,23.5907304 C158.83465,23.9827304 158.704156,24.4727304 158.63784,25.0607304 L158.63784,29.2417087 C158.704156,29.8297087 158.83465,30.3197087 159.064618,30.7117087 C159.523485,31.5276652 160.475447,32.0837087 161.786802,32.0837087 C163.099226,32.0837087 164.050118,31.5276652 164.508985,30.7117087 C165.067327,29.796687 165.165732,28.5557087 165.165732,27.150687 C165.165732,25.8447304 165.067327,24.5377087 164.508985,23.5907304 M167.427979,32.344687 C166.313435,34.304687 164.21377,35.382687 161.786802,35.382687 C160.672258,35.382687 159.588732,35.1536652 158.63784,34.6647304 L158.63784,42.2096652 L155.293137,42.2096652 L155.293137,19.1477087 L158.63784,19.1477087 L158.63784,19.6377087 C159.588732,19.1477087 160.672258,18.9197522 161.786802,18.9197522 C164.21377,18.9197522 166.313435,19.9977522 167.427979,21.9577522 C168.445188,23.6887304 168.543593,25.6817522 168.511504,27.1837087 C168.511504,28.7517087 168.41203,30.678687 167.427979,32.344687" id="Fill-12" fill="#2CD5C4"></path>
                    <polygon id="Fill-14" fill="#FFFFFF" points="2.68688608 39.0163565 16.2197215 33.1523348 22.7690063 13.8271609 16.1416392 3.34755217"></polygon>
                    <polygon id="Fill-18" fill="#FFFFFF" points="49.2724848 20.5874565 0.000427848101 41.8619783 10.5019595 49 43.5254152 35.0232826"></polygon>
                    <polygon id="Fill-16" fill="#FFFFFF" points="15.8392576 0 32.4419032 26.1521522 42.2043272 21.9338913 26.6370741 0"></polygon>
                </g>
            </g>
        </g>
    </g>
</svg>