<?xml version="1.0" encoding="UTF-8" standalone="no"?>
<svg width="167px" height="126px" viewBox="0 0 167 126" version="1.1" xmlns="http://www.w3.org/2000/svg" xmlns:xlink="http://www.w3.org/1999/xlink">
    <!-- Generator: Sketch 40.3 (33839) - http://www.bohemiancoding.com/sketch -->
    <title>chat</title>
    <desc>Created with Sketch.</desc>
    <defs></defs>
    <g id="Page-1" stroke="none" stroke-width="1" fill="none" fill-rule="evenodd">
        <g id="Onboarding" transform="translate(-131.000000, -411.000000)">
            <g id="chat" transform="translate(132.000000, 411.000000)">
                <g id="Page-1">
                    <g id="Group-3" transform="translate(54.566502, 28.087857)">
                        <polyline id="Fill-1" fill="#A6D7EB" opacity="0.60704291" points="109.647783 67.6368 109.647783 69.6670857 109.647783 0.2618 0.323497537 0.2618 0.323497537 79.5230857 90.5282118 79.5230857 104.671069 95.0708 104.429069 79.5230857 109.650926 79.5230857 109.647783 71.4993714"></polyline>
                        <polyline id="Stroke-2" stroke="#3F4041" stroke-width="2" points="109.647783 67.6368 109.647783 69.6670857 109.647783 0.2618 0.323497537 0.2618 0.323497537 79.5230857 90.5282118 79.5230857 104.671069 95.0708 104.429069 79.5230857 109.650926 79.5230857 109.647783 71.4993714"></polyline>
                    </g>
                    <polyline id="Fill-14" fill="#FFFFFF" points="0 80.7426714 0 1.57095714 132.785714 1.57095714 132.785714 92.7138143 30.7072857 92.7138143 6.28571429 120.5831 7.59471429 93.1836714 0 92.9212429 0 82.3141"></polyline>
                    <polygon id="Fill-15" fill-opacity="0.53" fill="#DFE0E0" points="7.33747143 102.0327 6.28461429 120.581843 29.7774714 91.6487 132.786186 92.7141286 132.786186 1.57127143 108.166614 0.730557143"></polygon>
                    <polyline id="Fill-16" fill="#3F4041" points="15.7142857 22.2069571 15.7142857 25.3498143 117.857143 25.3498143 117.857143 22.2069571"></polyline>
                    <polyline id="Fill-17" fill="#3F4041" points="15.7142857 44.2069571 15.7142857 47.3498143 117.857143 47.3498143 117.857143 44.2069571"></polyline>
                    <polyline id="Fill-18" fill="#3F4041" points="15.7142857 67.7783857 15.7142857 70.9212429 91.1428571 70.9212429 91.1428571 67.7783857"></polyline>
                    <polyline id="Stroke-19" stroke="#3F4041" stroke-width="2" points="0 80.7426714 0 1.57095714 132.785714 1.57095714 132.785714 92.7138143 30.7072857 92.7138143 7.07142857 119.3731 7.59785714 92.9212429 0 92.9212429 0 82.3141"></polyline>
                </g>
            </g>
        </g>
    </g>
</svg>